<svg width="1277" height="1601" xmlns="http://www.w3.org/2000/svg" xmlns:xlink="http://www.w3.org/1999/xlink" xml:space="preserve" overflow="hidden"><defs><clipPath id="clip0"><rect x="221" y="458" width="1277" height="1601"/></clipPath></defs><g clip-path="url(#clip0)" transform="translate(-221 -458)"><path d="M633.5 621C633.5 532.358 717.671 460.5 821.5 460.5 925.33 460.5 1009.5 532.358 1009.5 621 1009.5 709.642 925.33 781.5 821.5 781.5 717.671 781.5 633.5 709.642 633.5 621Z" stroke="#81D0F3" stroke-width="4.58333" stroke-miterlimit="8" fill="#6FC9F1" fill-rule="evenodd"/><path d="M1034 1144.5C1034 1055.86 1118.17 984 1222 984 1325.83 984 1410 1055.86 1410 1144.5 1410 1233.14 1325.83 1305 1222 1305 1118.17 1305 1034 1233.14 1034 1144.5Z" fill="#E75A39" fill-rule="evenodd"/><path d="M223.5 1154C223.5 1065.36 307.447 993.5 411 993.5 514.553 993.5 598.5 1065.36 598.5 1154 598.5 1242.64 514.553 1314.5 411 1314.5 307.447 1314.5 223.5 1242.64 223.5 1154Z" stroke="#638CE7" stroke-width="4.58333" stroke-miterlimit="8" fill="#638CE7" fill-rule="evenodd"/><path d="M1034.5 1746C1034.5 1657.36 1118.67 1585.5 1222.5 1585.5 1326.33 1585.5 1410.5 1657.36 1410.5 1746 1410.5 1834.64 1326.33 1906.5 1222.5 1906.5 1118.67 1906.5 1034.5 1834.64 1034.5 1746Z" stroke="#B886E6" stroke-width="4.58333" stroke-miterlimit="8" fill="#B886E6" fill-rule="evenodd"/><text fill="#FFFFFF" font-family="Arial,Arial_MSFontService,sans-serif" font-weight="400" font-size="83" transform="matrix(1 0 0 1 756.915 651)">VIP<tspan font-size="83" x="376.809" y="524">EXC</tspan><tspan font-size="83" x="-442.304" y="532">SOM</tspan><tspan font-size="83" x="408.986" y="1121">PV</tspan></text><path d="M1236.5 1533.5 1253.5 1533.5 1253.5 1331.5 1287.5 1331.5 1287.5 1533.5 1304.5 1533.5 1270.5 1567.5Z" stroke="#E75A39" stroke-width="4.58333" stroke-miterlimit="8" fill="#E75A39" fill-rule="evenodd"/><path d="M1218.5 1359.5 1201.5 1359.5 1201.5 1560.5 1167.5 1560.5 1167.5 1359.5 1150.5 1359.5 1184.5 1325.5Z" stroke="#B886E6" stroke-width="4.58333" stroke-miterlimit="8" fill="#B886E6" fill-rule="evenodd"/><path d="M1014.51 765.574 1000.57 775.744 1135.9 961.172 1108.03 981.512 972.704 796.084 958.769 806.254 966.3 758.043Z" stroke="#E75A39" stroke-width="4.58333" stroke-miterlimit="8" fill="#E75A39" fill-rule="evenodd"/><path d="M667 1077.5 667 1094.25 1009.5 1094.25 1009.5 1127.75 667 1127.75 667 1144.5 633.5 1111Z" stroke="#E75A39" stroke-width="4.58333" stroke-miterlimit="8" fill="#E75A39" fill-rule="evenodd"/><path d="M1269.66 1933.94C1291.3 1963.19 1283.05 2005.99 1251.23 2029.54 1219.41 2053.08 1176.06 2048.46 1154.42 2019.21 1132.78 1989.96 1141.03 1947.16 1172.85 1923.61 1173.51 1923.12 1174.18 1922.65 1174.85 1922.18L1212.04 1976.58Z" fill="#FFFFFF" fill-rule="evenodd"/><path d="M1269.66 1933.94C1291.3 1963.19 1283.05 2005.99 1251.23 2029.54 1219.41 2053.08 1176.06 2048.46 1154.42 2019.21 1132.78 1989.96 1141.03 1947.16 1172.85 1923.61 1173.51 1923.12 1174.18 1922.65 1174.85 1922.18" stroke="#B886E6" stroke-width="27.5" stroke-miterlimit="8" fill="none" fill-rule="evenodd"/><path d="M1247.85 1968.29 1267.33 1914.58 1311.12 1951.26Z" stroke="#B886E6" stroke-width="4.58333" stroke-miterlimit="8" fill="#B886E6" fill-rule="evenodd"/><path d="M1341.17 973.105C1344.54 936.875 1379.23 910.478 1418.64 914.147 1458.06 917.816 1487.28 950.161 1483.91 986.392 1480.53 1022.62 1445.85 1049.02 1406.43 1045.35 1405.61 1045.27 1404.8 1045.19 1403.98 1045.08L1412.54 979.749Z" fill="#FFFFFF" fill-rule="evenodd"/><path d="M1341.17 973.105C1344.54 936.875 1379.23 910.478 1418.64 914.147 1458.06 917.816 1487.28 950.161 1483.91 986.392 1480.53 1022.62 1445.85 1049.02 1406.43 1045.35 1405.61 1045.27 1404.8 1045.19 1403.98 1045.08" stroke="#E75A39" stroke-width="27.5" stroke-miterlimit="8" fill="none" fill-rule="evenodd"/><path d="M1370.8 965.828 1326.07 992.796 1321.16 940.802Z" stroke="#E75A39" stroke-width="4.58333" stroke-miterlimit="8" fill="#E75A39" fill-rule="evenodd"/><path d="M998.019 1634.98 1008 1621.95 579.226 1293.3 599.19 1267.26 1027.96 1595.91 1037.95 1582.89 1044.03 1628.9Z" stroke="#638CE7" stroke-width="4.58333" stroke-miterlimit="8" fill="#638CE7" fill-rule="evenodd"/><path d="M976 1237.5 976 1220.75 633.5 1220.75 633.5 1187.25 976 1187.25 976 1170.5 1009.5 1204Z" stroke="#638CE7" stroke-width="4.58333" stroke-miterlimit="8" fill="#638CE7" fill-rule="evenodd"/><path d="M712.937 822.435 699.845 812.914 559.852 1005.4 533.667 986.356 673.66 793.87 660.568 784.348 705.796 777.207Z" stroke="#638CE7" stroke-width="4.58333" stroke-miterlimit="8" fill="#638CE7" fill-rule="evenodd"/><path d="M462.239 905.025 476.924 915.546 618.583 717.825 647.954 738.867 506.295 936.589 520.98 947.11 470.567 955.438Z" stroke="#81D0F3" stroke-width="4.58333" stroke-miterlimit="8" fill="#6FC9F1" fill-rule="evenodd"/></g></svg>